<svg width="88" height="88" viewBox="0 0 88 88" fill="none" xmlns="http://www.w3.org/2000/svg">
<path d="M8.71393 56.7098C8.67374 54.9193 1.16588 54.4895 2.49526 51.8305C2.68446 51.4526 3.64425 50.4219 4.01326 50.1758C4.6539 49.7493 7.5186 48.5953 7.01494 47.5883C5.73454 45.0275 0.971691 47.4964 1.52961 43.0343C1.58329 42.6057 1.64225 42.0842 1.84025 41.689C3.31689 38.7352 8.30884 40.499 8.98145 37.135C9.68574 33.6124 3.82905 34.1075 5.25524 30.3039C6.0314 28.235 8.33318 26.7252 10.327 26.0605C10.9705 25.8461 13.1535 25.4475 13.4316 24.6118C14.1327 22.5091 10.9705 21.2502 10.0166 20.0578C9.10084 18.9132 9.66814 16.7498 10.5341 15.7106C13.3908 12.2827 18.4171 15.182 21.5047 13.1234C22.4639 12.4839 21.2478 10.4922 21.0905 9.70778C20.7864 8.18538 21.5443 6.36612 22.7467 5.46442C24.3465 4.26468 27.8812 5.32039 29.1637 6.60255C30.3226 7.7618 30.853 9.2666 32.786 8.8797C35.3589 8.36548 33.808 3.14239 36.2019 1.9453C38.1042 0.994017 41.7207 2.30052 42.9289 3.9121C43.9084 5.21802 44.1222 6.89706 45.7235 7.43063C49.1564 8.57522 49.6454 3.8505 51.7266 2.46303C52.3889 2.02127 52.9662 1.32372 53.8999 1.63524C55.2577 2.08786 56.4264 2.2574 57.419 3.49791C58.6231 5.0033 58.8015 7.85978 60.834 8.6726C62.1214 9.1877 63.0733 7.84247 63.9395 7.12028C65.7312 5.62722 68.3891 3.29023 70.8739 4.94698C74.5139 7.37372 69.4776 11.3651 72.3224 13.6408C73.9771 14.9646 75.7242 14.9587 77.7048 14.676C79.3251 14.4442 81.2902 13.4883 82.5691 15.1934C85.4062 18.9765 78.0899 22.3414 78.6361 26.1641C79.0283 28.9114 81.4392 28.8548 83.6043 28.8548C84.4104 28.8548 85.9741 28.8231 86.2947 29.7864C87.075 32.1264 85.6943 32.3619 84.1217 33.3056C82.5644 34.2398 80.9778 35.7514 80.7058 37.6525C80.1872 41.2831 84.7864 41.1783 85.7773 43.6552C87.4906 47.9382 80.3333 48.106 79.7748 50.9003C79.5416 52.0645 79.7695 53.8298 80.8097 54.5227C81.6463 55.0806 83.3341 55.1633 83.7075 56.2821C84.6265 59.0394 82.7536 59.6859 80.7058 60.1532L78.8432 60.59C77.9746 60.8358 77.2366 61.1675 76.8764 61.768C75.9236 63.3561 77.5423 64.7254 78.429 65.9078C79.2597 67.0154 79.2978 68.3586 78.8432 69.6334C76.6666 75.7403 72.5441 68.6493 69.8992 70.0127C65.8209 72.1145 75.581 78.3619 69.8736 80.8939C68.1779 81.6457 62.3716 76.9418 60.7237 77.4126C58.856 77.9462 60.5222 83.9176 57.2013 84.9105C53.7338 85.9481 53.6321 78.0034 49.9302 78.9289C46.6613 79.7458 47.9168 83.0804 45.9514 85.1033C44.6185 86.4749 42.7978 86.694 41.5831 86.2082C38.721 85.0637 38.9387 81.1726 35.5803 80.5009C31.1428 79.6132 30.0742 86.3379 25.4375 84.02C21.8239 82.213 25.4448 76.7779 21.8151 75.3262C18.4285 73.9715 14.9848 80.1905 12.0864 77.2927C11.4138 76.6195 11.7461 75.7119 11.8793 74.912C12.2099 72.9293 13.847 70.673 13.4316 68.5983C12.7807 65.3446 10.6567 65.7007 7.94628 65.7007C6.96156 65.7007 4.82814 65.9486 4.3242 64.6655C3.43305 62.3981 4.64334 61.0341 5.77297 59.9045C6.42886 59.2491 8.7374 57.7391 8.71393 56.7098Z" stroke="#DCF343" stroke-width="2.2" stroke-miterlimit="1.5" stroke-linecap="round" stroke-linejoin="round"/>
<path d="M22 29.333H48.8889" stroke="#DCF343" stroke-width="2.44444" stroke-linecap="round"/>
<path d="M22 39.9258H66.8148" stroke="#DCF343" stroke-width="2.44444" stroke-linecap="round"/>
<path d="M22 51.333H66.8148" stroke="#DCF343" stroke-width="2.44444" stroke-linecap="round"/>
</svg>
