<svg width="212" height="232" viewBox="0 0 212 232" fill="none" xmlns="http://www.w3.org/2000/svg">
<rect width="212" height="232" fill="#D2E7F7"/>
<path d="M22.4647 173.414C23.9623 170.03 25.2381 165.981 26.4029 160.822C27.5678 165.981 28.8435 170.03 30.3412 173.414C36.8865 188.336 48.3129 189.945 52.9168 189.945C57.5207 189.945 68.9472 188.336 75.4924 173.414C76.9901 170.03 78.2658 165.981 79.4307 160.822C80.5955 165.981 81.8713 170.03 83.3689 173.414C89.9142 188.336 101.341 189.945 105.945 189.945C110.548 189.945 121.975 188.336 128.52 173.414C130.018 170.03 131.294 165.981 132.458 160.822C133.623 165.981 134.899 170.03 136.397 173.414C142.942 188.336 154.368 189.945 158.972 189.945C163.576 189.945 175.003 188.336 181.548 173.414C183.046 170.03 184.321 165.981 185.486 160.822C186.651 165.981 187.927 170.03 189.424 173.414C195.97 188.336 207.396 189.945 212 189.945L212 150.282L212 71.1229C210.835 65.964 209.559 61.9145 208.062 58.5307C201.516 43.6087 190.09 42 185.486 42C180.882 42 169.456 43.6087 162.911 58.5307C161.413 61.9145 160.137 65.964 158.972 71.1229C157.807 65.964 156.532 61.9145 155.034 58.5307C148.489 43.6087 137.062 42 132.458 42C127.855 42 116.428 43.6087 109.883 58.5307C108.385 61.9145 107.109 65.964 105.945 71.1229C104.78 65.964 103.504 61.9145 102.006 58.5307C95.461 43.6087 84.0346 42 79.4307 42C74.8268 42 63.4003 43.6087 56.8551 58.5307C55.3574 61.9145 54.0816 65.964 52.9168 71.1229C51.752 65.964 50.4762 61.9145 48.9785 58.5307C42.4333 43.6087 31.0068 42 26.4029 42C21.7991 42 10.3726 43.6087 3.82732 58.5307C2.38513 61.8591 1.16484 65.7976 -1.25846e-06 70.7901L-6.46929e-06 190C4.65934 189.889 16.0303 188.225 22.4647 173.414Z" fill="#6F96D1"/>
<path d="M52 116.939V94.9998H66.6264V102.313H73.9396V109.626H66.6264V116.939H52Z" fill="#DCF343"/>
<path d="M75.4014 116.939V102.313H82.7146V94.9998H90.0278V102.313H97.341V116.939H90.0278V109.626H82.7146V116.939H75.4014Z" fill="#DCF343"/>
<path d="M98.8037 116.939V94.9998H120.743V116.939H113.43V102.313H106.117V116.939H98.8037Z" fill="#DCF343"/>
<path d="M129.518 116.939V102.313H122.205V94.9998H144.145V102.313H136.831V116.939H129.518Z" fill="#DCF343"/>
<path d="M145.607 116.939V102.294H150.489V112.058H155.371V102.294H160.253V116.939H145.607Z" fill="#DCF343"/>
<path d="M65.8969 130.245C65.8969 128.544 65.074 127.27 63.6189 127.27C61.8413 127.27 61.1062 128.383 61.1062 130.377C61.1062 132.34 61.6792 133.556 63.5167 133.556C65.0444 133.556 65.8969 132.266 65.8969 130.245ZM61.1504 132.985V137H60.4159V128.544C60.4159 127.943 60.4159 127.078 60.4014 126.522L61.1214 126.566C61.1504 126.845 61.1504 127.461 61.1504 128.061C61.606 127.182 62.4143 126.566 63.7369 126.566C65.4703 126.566 66.6756 128.017 66.6756 130.216C66.6756 132.853 65.2646 134.245 63.487 134.245C62.1935 134.245 61.5177 133.673 61.1504 132.985Z" fill="#DCF343"/>
<path d="M65.8969 130.245C65.8969 128.544 65.074 127.27 63.6189 127.27C61.8413 127.27 61.1062 128.383 61.1062 130.377C61.1062 132.34 61.6792 133.556 63.5167 133.556C65.0444 133.556 65.8969 132.266 65.8969 130.245ZM61.1504 132.985V137H60.4159V128.544C60.4159 127.943 60.4159 127.078 60.4014 126.522L61.1214 126.566C61.1504 126.845 61.1504 127.461 61.1504 128.061C61.606 127.182 62.4143 126.566 63.7369 126.566C65.4703 126.566 66.6756 128.017 66.6756 130.216C66.6756 132.853 65.2646 134.245 63.487 134.245C62.1935 134.245 61.5177 133.673 61.1504 132.985Z" stroke="#DCF343" stroke-width="0.0871658"/>
<path d="M79.4735 128.445C79.4735 127.214 79.459 126.687 79.459 126.453H80.179C80.1935 126.687 80.208 127.156 80.208 128.094C80.6346 126.995 81.5748 126.335 82.7649 126.277V127.068C81.2366 127.171 80.208 128.226 80.208 129.969V133.78H79.4735V128.445Z" fill="#DCF343"/>
<path d="M79.4735 128.445C79.4735 127.214 79.459 126.687 79.459 126.453H80.179C80.1935 126.687 80.208 127.156 80.208 128.094C80.6346 126.995 81.5748 126.335 82.7649 126.277V127.068C81.2366 127.171 80.208 128.226 80.208 129.969V133.78H79.4735V128.445Z" stroke="#DCF343" stroke-width="0.0871658"/>
<path d="M116.685 123.239H117.42V124.539H116.685V123.239ZM117.42 126.522V134.431C117.42 136.409 116.92 136.995 115.627 136.995C115.598 136.995 115.304 136.981 115.216 136.965V136.277C115.333 136.292 115.466 136.292 115.553 136.292C116.597 136.292 116.685 135.706 116.685 134.518V126.522H117.42Z" fill="#DCF343"/>
<path d="M116.685 123.239H117.42V124.539H116.685V123.239ZM117.42 126.522V134.431C117.42 136.409 116.92 136.995 115.627 136.995C115.598 136.995 115.304 136.981 115.216 136.965V136.277C115.333 136.292 115.466 136.292 115.553 136.292C116.597 136.292 116.685 135.706 116.685 134.518V126.522H117.42Z" stroke="#DCF343" stroke-width="0.0871658"/>
<path d="M139.129 129.306C139.114 127.856 138.321 126.712 136.881 126.712C135.367 126.712 134.676 127.767 134.515 129.306H139.129ZM134.471 129.951C134.486 131.841 135.441 133.013 136.852 133.013C138.233 133.013 138.703 132.237 138.967 131.636H139.717C139.408 132.603 138.629 133.703 136.822 133.703C134.588 133.703 133.722 131.783 133.722 129.921C133.722 127.826 134.765 126.023 136.91 126.023C139.173 126.023 139.893 127.972 139.893 129.35C139.893 129.555 139.893 129.76 139.878 129.951H134.471Z" fill="#DCF343"/>
<path d="M139.129 129.306C139.114 127.856 138.321 126.712 136.881 126.712C135.367 126.712 134.676 127.767 134.515 129.306H139.129ZM134.471 129.951C134.486 131.841 135.441 133.013 136.852 133.013C138.233 133.013 138.703 132.237 138.967 131.636H139.717C139.408 132.603 138.629 133.703 136.822 133.703C134.588 133.703 133.722 131.783 133.722 129.921C133.722 127.826 134.765 126.023 136.91 126.023C139.173 126.023 139.893 127.972 139.893 129.35C139.893 129.555 139.893 129.76 139.878 129.951H134.471Z" stroke="#DCF343" stroke-width="0.0871658"/>
<path d="M155.97 130.125C156.558 129.407 158.26 127.503 159.117 126.521H159.923L157.492 129.261L160.344 133.671H159.551L157.032 129.73L155.97 130.902V133.671H155.33V123.239H155.97V130.125Z" fill="#DCF343"/>
<path d="M155.97 130.125C156.558 129.407 158.26 127.503 159.117 126.521H159.923L157.492 129.261L160.344 133.671H159.551L157.032 129.73L155.97 130.902V133.671H155.33V123.239H155.97V130.125Z" stroke="#DCF343" stroke-width="0.0871658"/>
<path d="M96.305 129.857C96.305 131.601 97.2453 133.008 98.8032 133.008C100.39 133.008 101.286 131.703 101.286 129.857C101.286 128.128 100.405 126.706 98.7736 126.706C97.0988 126.706 96.305 128.099 96.305 129.857ZM102.065 129.842C102.065 131.879 100.934 133.696 98.7445 133.696C96.7606 133.696 95.5264 132.07 95.5264 129.857C95.5264 127.761 96.6868 126.018 98.8177 126.018C100.772 126.018 102.065 127.542 102.065 129.842Z" fill="#DCF343"/>
<path d="M96.305 129.857C96.305 131.601 97.2453 133.008 98.8032 133.008C100.39 133.008 101.286 131.703 101.286 129.857C101.286 128.128 100.405 126.706 98.7736 126.706C97.0988 126.706 96.305 128.099 96.305 129.857ZM102.065 129.842C102.065 131.879 100.934 133.696 98.7445 133.696C96.7606 133.696 95.5264 132.07 95.5264 129.857C95.5264 127.761 96.6868 126.018 98.8177 126.018C100.772 126.018 102.065 127.542 102.065 129.842Z" stroke="#DCF343" stroke-width="0.0871658" stroke-miterlimit="10"/>
<path d="M99.3899 129.889C99.3899 130.25 99.0964 130.542 98.735 130.542C98.3735 130.542 98.0801 130.25 98.0801 129.889C98.0801 129.528 98.3735 129.236 98.735 129.236C99.0964 129.236 99.3899 129.528 99.3899 129.889Z" fill="#DCF343"/>
<path d="M99.3899 129.889C99.3899 130.25 99.0964 130.542 98.735 130.542C98.3735 130.542 98.0801 130.25 98.0801 129.889C98.0801 129.528 98.3735 129.236 98.735 129.236C99.0964 129.236 99.3899 129.528 99.3899 129.889Z" stroke="#DCF343" stroke-width="0.0871658" stroke-miterlimit="10"/>
<path d="M98.7352 129.49C98.515 129.49 98.336 129.669 98.336 129.889C98.336 130.109 98.515 130.287 98.7352 130.287C98.9554 130.287 99.135 130.109 99.135 129.889C99.135 129.669 98.9554 129.49 98.7352 129.49ZM98.7352 130.796C98.2331 130.796 97.8252 130.389 97.8252 129.889C97.8252 129.388 98.2331 128.981 98.7352 128.981C99.2373 128.981 99.6452 129.388 99.6452 129.889C99.6452 130.389 99.2373 130.796 98.7352 130.796Z" fill="#DCF343"/>
<path d="M98.7352 129.49C98.515 129.49 98.336 129.669 98.336 129.889C98.336 130.109 98.515 130.287 98.7352 130.287C98.9554 130.287 99.135 130.109 99.135 129.889C99.135 129.669 98.9554 129.49 98.7352 129.49ZM98.7352 130.796C98.2331 130.796 97.8252 130.389 97.8252 129.889C97.8252 129.388 98.2331 128.981 98.7352 128.981C99.2373 128.981 99.6452 129.388 99.6452 129.889C99.6452 130.389 99.2373 130.796 98.7352 130.796Z" stroke="#DCF343" stroke-width="0.0871658" stroke-miterlimit="10"/>
<path d="M57.4967 126.918C57.4967 125.217 56.6732 123.943 55.2182 123.943C53.44 123.943 52.7055 125.056 52.7055 127.049C52.7055 129.013 53.2784 130.229 55.1159 130.229C56.6442 130.229 57.4967 128.939 57.4967 126.918ZM52.7496 129.657V133.673H52.0145V125.217C52.0145 124.616 52.0145 123.796 52 123.239H52.72C52.7496 123.517 52.7496 124.133 52.7496 124.734C53.2052 123.854 54.0129 123.239 55.3361 123.239C57.0701 123.239 58.2754 124.69 58.2754 126.888C58.2754 129.526 56.8644 130.918 55.0862 130.918C53.7927 130.918 53.1169 130.346 52.7496 129.657Z" fill="#DCF343"/>
<path d="M57.4967 126.918C57.4967 125.217 56.6732 123.943 55.2182 123.943C53.44 123.943 52.7055 125.056 52.7055 127.049C52.7055 129.013 53.2784 130.229 55.1159 130.229C56.6442 130.229 57.4967 128.939 57.4967 126.918ZM52.7496 129.657V133.673H52.0145V125.217C52.0145 124.616 52.0145 123.796 52 123.239H52.72C52.7496 123.517 52.7496 124.133 52.7496 124.734C53.2052 123.854 54.0129 123.239 55.3361 123.239C57.0701 123.239 58.2754 124.69 58.2754 126.888C58.2754 129.526 56.8644 130.918 55.0862 130.918C53.7927 130.918 53.1169 130.346 52.7496 129.657Z" stroke="#DCF343" stroke-width="0.0871658" stroke-miterlimit="10"/>
<path d="M72.1093 125.408C72.1093 124.177 72.0947 123.473 72.0947 123.239H72.8147C72.8292 123.473 72.8444 124.118 72.8444 125.056C73.2703 123.957 74.2111 123.298 75.4012 123.239V124.03C73.8729 124.133 72.8444 125.188 72.8444 126.932V130.742H72.1093V125.408Z" fill="#DCF343"/>
<path d="M72.1093 125.408C72.1093 124.177 72.0947 123.473 72.0947 123.239H72.8147C72.8292 123.473 72.8444 124.118 72.8444 125.056C73.2703 123.957 74.2111 123.298 75.4012 123.239V124.03C73.8729 124.133 72.8444 125.188 72.8444 126.932V130.742H72.1093V125.408Z" stroke="#DCF343" stroke-width="0.0871658" stroke-miterlimit="10"/>
<path d="M109.398 119.812H110.133V121.234H109.398V119.812ZM110.133 123.285V131.125C110.133 133.103 109.633 133.689 108.34 133.689C108.311 133.689 108.016 133.675 107.929 133.66V132.971C108.046 132.986 108.179 132.986 108.266 132.986C109.31 132.986 109.398 132.4 109.398 131.213V123.285H110.133Z" fill="#DCF343"/>
<path d="M109.398 119.812H110.133V121.234H109.398V119.812ZM110.133 123.285V131.125C110.133 133.103 109.633 133.689 108.34 133.689C108.311 133.689 108.016 133.675 107.929 133.66V132.971C108.046 132.986 108.179 132.986 108.266 132.986C109.31 132.986 109.398 132.4 109.398 131.213V123.285H110.133Z" stroke="#DCF343" stroke-width="0.0871658" stroke-miterlimit="10"/>
<path d="M128.797 126.522C128.782 125.071 127.989 123.928 126.548 123.928C125.034 123.928 124.344 124.983 124.182 126.522H128.797ZM124.138 127.167C124.153 129.057 125.108 130.229 126.519 130.229C127.901 130.229 128.371 129.453 128.635 128.852H129.385C129.077 129.819 128.297 130.918 126.49 130.918C124.256 130.918 123.389 128.998 123.389 127.137C123.389 125.042 124.432 123.239 126.578 123.239C128.841 123.239 129.562 125.188 129.562 126.565C129.562 126.771 129.562 126.976 129.547 127.167H124.138Z" fill="#DCF343"/>
<path d="M128.797 126.522C128.782 125.071 127.989 123.928 126.548 123.928C125.034 123.928 124.344 124.983 124.182 126.522H128.797ZM124.138 127.167C124.153 129.057 125.108 130.229 126.519 130.229C127.901 130.229 128.371 129.453 128.635 128.852H129.385C129.077 129.819 128.297 130.918 126.49 130.918C124.256 130.918 123.389 128.998 123.389 127.137C123.389 125.042 124.432 123.239 126.578 123.239C128.841 123.239 129.562 125.188 129.562 126.565C129.562 126.771 129.562 126.976 129.547 127.167H124.138Z" stroke="#DCF343" stroke-width="0.0871658" stroke-miterlimit="10"/>
<path d="M146.299 127.145C146.854 126.419 148.544 124.316 149.353 123.323H150.125L147.736 126.271L150.427 130.73H149.679L147.301 126.745L146.299 127.93V130.73H145.695V119.812H146.299V127.145Z" fill="#DCF343"/>
<path d="M146.299 127.145C146.854 126.419 148.544 124.316 149.353 123.323H150.125L147.736 126.271L150.427 130.73H149.679L147.301 126.745L146.299 127.93V130.73H145.695V119.812H146.299V127.145Z" stroke="#DCF343" stroke-width="0.0871658" stroke-miterlimit="10"/>
<path d="M87.4365 126.877C87.4365 128.621 88.3773 130.028 89.9352 130.028C91.5222 130.028 92.4189 128.724 92.4189 126.877C92.4189 125.148 91.5373 123.727 89.9056 123.727C88.2303 123.727 87.4365 125.119 87.4365 126.877ZM93.1981 126.862C93.1981 128.899 92.0662 130.717 89.8765 130.717C87.8921 130.717 86.6572 129.09 86.6572 126.877C86.6572 124.782 87.8183 123.038 89.9498 123.038C91.9046 123.038 93.1981 124.562 93.1981 126.862Z" fill="#DCF343"/>
<path d="M87.4365 126.877C87.4365 128.621 88.3773 130.028 89.9352 130.028C91.5222 130.028 92.4189 128.724 92.4189 126.877C92.4189 125.148 91.5373 123.727 89.9056 123.727C88.2303 123.727 87.4365 125.119 87.4365 126.877ZM93.1981 126.862C93.1981 128.899 92.0662 130.717 89.8765 130.717C87.8921 130.717 86.6572 129.09 86.6572 126.877C86.6572 124.782 87.8183 123.038 89.9498 123.038C91.9046 123.038 93.1981 124.562 93.1981 126.862Z" stroke="#DCF343" stroke-width="0.0871658" stroke-miterlimit="10"/>
<path d="M90.5227 126.908C90.5227 127.269 90.2292 127.562 89.8678 127.562C89.5058 127.562 89.2129 127.269 89.2129 126.908C89.2129 126.547 89.5058 126.255 89.8678 126.255C90.2292 126.255 90.5227 126.547 90.5227 126.908Z" fill="#DCF343"/>
<path d="M90.5227 126.908C90.5227 127.269 90.2292 127.562 89.8678 127.562C89.5058 127.562 89.2129 127.269 89.2129 126.908C89.2129 126.547 89.5058 126.255 89.8678 126.255C90.2292 126.255 90.5227 126.547 90.5227 126.908Z" stroke="#DCF343" stroke-width="0.0871658" stroke-miterlimit="10"/>
<path d="M89.8676 126.51C89.6474 126.51 89.4678 126.689 89.4678 126.908C89.4678 127.128 89.6474 127.307 89.8676 127.307C90.0879 127.307 90.2668 127.128 90.2668 126.908C90.2668 126.689 90.0879 126.51 89.8676 126.51ZM89.8676 127.816C89.3655 127.816 88.957 127.409 88.957 126.908C88.957 126.408 89.3655 126.001 89.8676 126.001C90.3697 126.001 90.7776 126.408 90.7776 126.908C90.7776 127.409 90.3697 127.816 89.8676 127.816Z" fill="#DCF343"/>
<path d="M89.8676 126.51C89.6474 126.51 89.4678 126.689 89.4678 126.908C89.4678 127.128 89.6474 127.307 89.8676 127.307C90.0879 127.307 90.2668 127.128 90.2668 126.908C90.2668 126.689 90.0879 126.51 89.8676 126.51ZM89.8676 127.816C89.3655 127.816 88.957 127.409 88.957 126.908C88.957 126.408 89.3655 126.001 89.8676 126.001C90.3697 126.001 90.7776 126.408 90.7776 126.908C90.7776 127.409 90.3697 127.816 89.8676 127.816Z" stroke="#DCF343" stroke-width="0.0871658" stroke-miterlimit="10"/>
</svg>
