<svg width="101" height="101" viewBox="0 0 101 101" fill="none" xmlns="http://www.w3.org/2000/svg">
<path d="M53.9806 49.5631C116.677 32.748 98.9411 2.03801 53.0561 47.9571C98.9655 2.03801 68.2376 -15.6775 51.4504 47.0323C68.2619 -15.6775 32.7898 -15.6775 49.577 47.0323C32.7655 -15.7018 2.06191 2.03801 47.9469 47.9327C2.06191 2.03801 -15.6741 32.748 47.0224 49.5631C-15.6741 32.748 -15.6741 68.2276 47.0224 51.4369C-15.6741 68.252 2.06191 98.962 47.9469 53.0429C2.03758 98.962 32.7655 116.677 49.5527 53.9677C32.7411 116.677 68.2132 116.677 51.426 53.9677C68.2376 116.677 98.9411 98.9377 53.0318 53.0429C98.9411 98.962 116.653 68.2276 53.9563 51.4369C116.677 68.2276 116.677 32.748 53.9806 49.5631Z" fill="#344EAD"/>
</svg>
