<svg width="267" height="73" viewBox="0 0 267 73" fill="none" xmlns="http://www.w3.org/2000/svg">
<path fill-rule="evenodd" clip-rule="evenodd" d="M193.847 36.3463C193.847 26.7067 197.676 17.4619 204.492 10.6457C211.308 3.82944 220.553 0.000119242 230.193 0.000119663C239.832 0.000120084 249.077 3.82944 255.894 10.6457C262.71 17.4619 266.539 26.7067 266.539 36.3463L242.319 36.3463C242.319 33.1302 241.042 30.0459 238.767 27.7717C236.493 25.4976 233.409 24.22 230.193 24.22C226.977 24.22 223.892 25.4976 221.618 27.7717C219.344 30.0459 218.067 33.1302 218.067 36.3463L218.077 36.3463C218.077 45.9859 214.248 55.2307 207.432 62.0469C200.615 68.8632 191.371 72.6925 181.731 72.6925C172.091 72.6925 162.847 68.8632 156.03 62.0469C149.214 55.2307 145.385 45.9859 145.385 36.3463L145.395 36.3463C145.395 33.1302 144.118 30.0459 141.844 27.7717C139.569 25.4976 136.485 24.22 133.269 24.22C130.053 24.22 126.969 25.4976 124.694 27.7717C122.42 30.0458 121.143 33.1302 121.143 36.3462L121.154 36.3462C121.154 45.9858 117.325 55.2306 110.509 62.0468C103.692 68.8631 94.4475 72.6924 84.8079 72.6924C75.1683 72.6924 65.9235 68.8631 59.1073 62.0468C52.291 55.2306 48.4617 45.9858 48.4617 36.3462L48.4726 36.3462C48.4726 33.1301 47.1951 30.0457 44.9209 27.7716C42.6468 25.4975 39.5624 24.2199 36.3463 24.2199C33.1302 24.2199 30.0459 25.4975 27.7718 27.7716C25.4976 30.0457 24.2201 33.1301 24.2201 36.3462L0.000150999 36.3462C0.000151421 26.7066 3.82947 17.4618 10.6457 10.6455C17.4619 3.82931 26.7067 -1.07516e-05 36.3463 -1.0062e-05C45.986 -9.37253e-06 55.2308 3.82931 62.047 10.6455C68.8632 17.4618 72.6925 26.7066 72.6925 36.3462L72.6816 36.3462C72.6816 39.5623 73.9592 42.6467 76.2333 44.9208C78.5074 47.1949 81.5918 48.4725 84.8079 48.4725C88.024 48.4725 91.1084 47.1949 93.3825 44.9208C95.6566 42.6467 96.9342 39.5624 96.9342 36.3463L96.9228 36.3463C96.9228 26.7067 100.752 17.4619 107.568 10.6457C114.385 3.82944 123.629 0.000118974 133.269 0.000119663C142.909 0.000120353 152.153 3.82944 158.97 10.6457C165.786 17.4619 169.615 26.7067 169.615 36.3463L169.605 36.3463C169.605 39.5624 170.882 42.6468 173.156 44.9209C175.43 47.195 178.515 48.4726 181.731 48.4726C184.947 48.4726 188.031 47.195 190.306 44.9209C192.58 42.6468 193.857 39.5624 193.857 36.3463L193.847 36.3463Z" fill="#DCF343"/>
</svg>
