<svg width="238" height="65" viewBox="0 0 238 65" fill="none" xmlns="http://www.w3.org/2000/svg">
<path fill-rule="evenodd" clip-rule="evenodd" d="M173.091 32.4547C173.091 23.8472 176.51 15.5922 182.597 9.50582C188.683 3.41941 196.938 0.000103183 205.545 0.000103798C214.153 0.000104414 222.408 3.41941 228.494 9.50582C234.581 15.5922 238 23.8472 238 32.4547L216.373 32.4547C216.373 29.5829 215.233 26.8288 213.202 24.7982C211.171 22.7675 208.417 21.6267 205.545 21.6267C202.674 21.6267 199.92 22.7675 197.889 24.7982C195.858 26.8288 194.718 29.5829 194.718 32.4547L194.727 32.4546C194.727 41.0621 191.308 49.3171 185.222 55.4035C179.135 61.4899 170.88 64.9092 162.273 64.9092C153.665 64.9092 145.41 61.4899 139.324 55.4035C133.238 49.3171 129.818 41.0621 129.818 32.4546L151.445 32.4546C151.445 35.3264 152.586 38.0805 154.616 40.1111C156.647 42.1417 159.401 43.2825 162.273 43.2825C165.145 43.2825 167.899 42.1417 169.929 40.1111C171.96 38.0805 173.101 35.3264 173.101 32.4546L173.091 32.4547ZM86.545 32.4545C86.545 23.8471 89.9643 15.5921 96.0507 9.50571C102.137 3.41931 110.392 -2.03432e-06 119 -1.41863e-06C127.607 -8.02944e-07 135.862 3.41931 141.948 9.50572C148.035 15.5921 151.454 23.8471 151.454 32.4546L129.827 32.4546C129.827 29.5828 128.687 26.8287 126.656 24.7981C124.625 22.7674 121.871 21.6266 119 21.6266C116.128 21.6266 113.374 22.7674 111.343 24.7981C109.312 26.8287 108.172 29.5828 108.172 32.4545L108.182 32.4545C108.182 41.062 104.762 49.3169 98.6759 55.4034C92.5895 61.4898 84.3346 64.9091 75.7271 64.9091C67.1196 64.9091 58.8647 61.4898 52.7783 55.4034C46.6918 49.3169 43.2725 41.062 43.2725 32.4545L43.2824 32.4545C43.2824 29.5828 42.1416 26.8287 40.111 24.7981C38.0804 22.7674 35.3263 21.6266 32.4545 21.6266C29.5828 21.6266 26.8287 22.7674 24.798 24.7981C22.7674 26.8287 21.6266 29.5828 21.6266 32.4545L-3.19362e-05 32.4545C-3.156e-05 23.8471 3.41928 15.5921 9.50569 9.50571C15.5921 3.4193 23.847 -5.81547e-06 32.4545 -5.19978e-06C41.062 -4.58409e-06 49.3169 3.4193 55.4034 9.50571C61.4898 15.5921 64.9091 23.8471 64.9091 32.4545L64.8992 32.4545C64.8992 35.3263 66.04 38.0804 68.0706 40.111C70.1012 42.1416 72.8553 43.2824 75.7271 43.2824C78.5988 43.2824 81.3529 42.1416 83.3836 40.111C85.4142 38.0804 86.555 35.3263 86.555 32.4545L86.545 32.4545Z" fill="#6F96D1"/>
</svg>
