<svg width="96" height="96" viewBox="0 0 96 96" fill="none" xmlns="http://www.w3.org/2000/svg">
<path d="M51.3083 47.1095C110.901 31.1269 94.0431 1.93712 50.4296 45.5829C94.0662 1.93712 64.8595 -14.9013 48.9033 44.704C64.8826 -14.9013 31.1665 -14.9013 47.1227 44.704C31.1434 -14.9245 1.95983 1.93712 45.5733 45.5598C1.95983 1.93712 -14.8982 31.1269 44.6946 47.1095C-14.8982 31.1269 -14.8982 64.85 44.6946 48.8905C-14.8982 64.8732 1.95983 94.0629 45.5733 50.4171C1.93671 94.0629 31.1434 110.901 47.0996 51.296C31.1203 110.901 64.8364 110.901 48.8802 51.296C64.8595 110.901 94.0431 94.0398 50.4064 50.4171C94.0431 94.0629 110.878 64.85 51.2852 48.8905C110.901 64.85 110.901 31.1269 51.3083 47.1095Z" fill="#6F96D1"/>
</svg>
