<svg width="20" height="21" viewBox="0 0 20 21" fill="none" xmlns="http://www.w3.org/2000/svg">
<path d="M15.8737 4.59301C15.1096 3.82144 14.1995 3.20965 13.1966 2.79332C12.1937 2.37698 11.1179 2.16442 10.032 2.16801C5.48203 2.16801 1.7737 5.87635 1.7737 10.4263C1.7737 11.8847 2.15703 13.3013 2.8737 14.5513L1.70703 18.8347L6.08203 17.6847C7.29036 18.343 8.6487 18.693 10.032 18.693C14.582 18.693 18.2904 14.9847 18.2904 10.4347C18.2904 8.22635 17.432 6.15135 15.8737 4.59301ZM10.032 17.293C8.7987 17.293 7.59036 16.9597 6.53203 16.3347L6.28203 16.1847L3.68203 16.868L4.3737 14.3347L4.20703 14.0763C3.52165 12.9822 3.1578 11.7174 3.15703 10.4263C3.15703 6.64301 6.24036 3.55968 10.0237 3.55968C11.857 3.55968 13.582 4.27635 14.8737 5.57635C15.5134 6.2129 16.0203 6.97013 16.3651 7.80412C16.7098 8.63811 16.8855 9.53225 16.882 10.4347C16.8987 14.218 13.8154 17.293 10.032 17.293ZM13.7987 12.1597C13.5904 12.0597 12.5737 11.5597 12.3904 11.4847C12.1987 11.418 12.0654 11.3847 11.9237 11.5847C11.782 11.793 11.3904 12.2597 11.2737 12.393C11.157 12.5347 11.032 12.5513 10.8237 12.443C10.6154 12.343 9.9487 12.118 9.16536 11.418C8.5487 10.868 8.14036 10.193 8.01536 9.98468C7.8987 9.77635 7.9987 9.66801 8.10703 9.55968C8.1987 9.46801 8.31536 9.31801 8.41536 9.20135C8.51536 9.08468 8.55703 8.99301 8.6237 8.85968C8.69036 8.71801 8.65703 8.60135 8.60703 8.50135C8.55703 8.40135 8.14036 7.38468 7.9737 6.96801C7.80703 6.56801 7.63203 6.61801 7.50703 6.60968H7.10703C6.96536 6.60968 6.7487 6.65968 6.55703 6.86801C6.3737 7.07635 5.84036 7.57635 5.84036 8.59301C5.84036 9.60968 6.58203 10.593 6.68203 10.7263C6.78203 10.868 8.14036 12.9513 10.207 13.843C10.6987 14.0597 11.082 14.1847 11.382 14.2763C11.8737 14.4347 12.3237 14.4097 12.682 14.3597C13.082 14.3013 13.907 13.8597 14.0737 13.3763C14.2487 12.893 14.2487 12.4847 14.1904 12.393C14.132 12.3013 14.007 12.2597 13.7987 12.1597Z" fill="#344EAD"/>
</svg>
