<svg width="20" height="21" viewBox="0 0 20 21" fill="none" xmlns="http://www.w3.org/2000/svg">
<path fill-rule="evenodd" clip-rule="evenodd" d="M10 2.16797C11.9891 2.16797 13.8968 2.95814 15.3033 4.36467C16.7098 5.77119 17.5 7.67885 17.5 9.66797C17.5 12.2296 16.1033 14.3263 14.6317 15.8305C13.8964 16.5739 13.0941 17.2478 12.235 17.8438L11.88 18.0855L11.7133 18.1963L11.3992 18.3963L11.1192 18.5671L10.7725 18.7688C10.5372 18.9031 10.2709 18.9738 10 18.9738C9.72906 18.9738 9.4628 18.9031 9.2275 18.7688L8.88083 18.5671L8.4475 18.3005L8.2875 18.1963L7.94583 17.9688C7.01903 17.3417 6.15575 16.6256 5.36833 15.8305C3.89667 14.3255 2.5 12.2296 2.5 9.66797C2.5 7.67885 3.29018 5.77119 4.6967 4.36467C6.10322 2.95814 8.01088 2.16797 10 2.16797ZM10 3.83464C8.4529 3.83464 6.96917 4.44922 5.87521 5.54318C4.78125 6.63714 4.16667 8.12087 4.16667 9.66797C4.16667 11.603 5.22667 13.3013 6.55917 14.6646C7.13211 15.2446 7.75138 15.7769 8.41083 16.2563L8.7925 16.528C8.91583 16.6141 9.03444 16.6941 9.14833 16.768L9.47333 16.9763L9.75917 17.1505L10 17.2913L10.3792 17.0671L10.685 16.8755C10.8478 16.7721 11.0219 16.6563 11.2075 16.528L11.5892 16.2563C12.2486 15.7769 12.8679 15.2446 13.4408 14.6646C14.7733 13.3021 15.8333 11.603 15.8333 9.66797C15.8333 8.12087 15.2188 6.63714 14.1248 5.54318C13.0308 4.44922 11.5471 3.83464 10 3.83464ZM10 6.33464C10.8841 6.33464 11.7319 6.68582 12.357 7.31095C12.9821 7.93607 13.3333 8.78391 13.3333 9.66797C13.3333 10.552 12.9821 11.3999 12.357 12.025C11.7319 12.6501 10.8841 13.0013 10 13.0013C9.11594 13.0013 8.2681 12.6501 7.64298 12.025C7.01786 11.3999 6.66667 10.552 6.66667 9.66797C6.66667 8.78391 7.01786 7.93607 7.64298 7.31095C8.2681 6.68582 9.11594 6.33464 10 6.33464ZM10 8.0013C9.55797 8.0013 9.13405 8.1769 8.82149 8.48946C8.50893 8.80202 8.33333 9.22594 8.33333 9.66797C8.33333 10.11 8.50893 10.5339 8.82149 10.8465C9.13405 11.159 9.55797 11.3346 10 11.3346C10.442 11.3346 10.866 11.159 11.1785 10.8465C11.4911 10.5339 11.6667 10.11 11.6667 9.66797C11.6667 9.22594 11.4911 8.80202 11.1785 8.48946C10.866 8.1769 10.442 8.0013 10 8.0013Z" fill="#344EAD"/>
</svg>
