<svg width="20" height="21" viewBox="0 0 20 21" fill="none" xmlns="http://www.w3.org/2000/svg">
<path d="M10.0013 2.16797C14.6038 2.16797 18.3346 5.8988 18.3346 10.5013C18.3346 15.1038 14.6038 18.8346 10.0013 18.8346C5.3988 18.8346 1.66797 15.1038 1.66797 10.5013C1.66797 5.8988 5.3988 2.16797 10.0013 2.16797ZM10.0013 3.83464C8.23319 3.83464 6.5375 4.53701 5.28726 5.78726C4.03701 7.0375 3.33464 8.73319 3.33464 10.5013C3.33464 12.2694 4.03701 13.9651 5.28726 15.2153C6.5375 16.4656 8.23319 17.168 10.0013 17.168C11.7694 17.168 13.4651 16.4656 14.7153 15.2153C15.9656 13.9651 16.668 12.2694 16.668 10.5013C16.668 8.73319 15.9656 7.0375 14.7153 5.78726C13.4651 4.53701 11.7694 3.83464 10.0013 3.83464ZM10.0013 5.5013C10.2054 5.50133 10.4024 5.57627 10.5549 5.7119C10.7075 5.84753 10.8049 6.03443 10.8288 6.23714L10.8346 6.33464V10.1563L13.0905 12.4121C13.2399 12.5621 13.3267 12.7633 13.3332 12.975C13.3396 13.1866 13.2653 13.3927 13.1253 13.5515C12.9852 13.7103 12.79 13.8099 12.5792 13.83C12.3685 13.85 12.158 13.7891 11.9905 13.6596L11.9121 13.5905L9.41214 11.0905C9.28262 10.9608 9.19944 10.7921 9.17547 10.6105L9.16797 10.5013V6.33464C9.16797 6.11362 9.25577 5.90166 9.41205 5.74538C9.56833 5.5891 9.78029 5.5013 10.0013 5.5013Z" fill="#344EAD"/>
</svg>
