<svg width="191" height="53" viewBox="0 0 191 53" fill="none" xmlns="http://www.w3.org/2000/svg">
<path fill-rule="evenodd" clip-rule="evenodd" d="M52.0897 26.0449C52.0897 19.1374 49.3457 12.5128 44.4613 7.62844C39.577 2.74409 32.9523 9.00741e-05 26.0448 9.0542e-05C19.1373 9.101e-05 12.5127 2.74409 7.62835 7.62845C2.744 12.5128 7.64183e-07 19.1374 1.04001e-06 26.0449L17.3554 26.0449C17.3554 23.7403 18.2709 21.5302 19.9005 19.9006C21.5301 18.271 23.7403 17.3555 26.0448 17.3555C28.3494 17.3555 30.5596 18.271 32.1892 19.9006C33.8188 21.5302 34.7342 23.7403 34.7342 26.0449L34.7266 26.0449C34.7266 32.9524 37.4706 39.577 42.3549 44.4614C47.2393 49.3457 53.8639 52.0897 60.7714 52.0897C67.6789 52.0897 74.3035 49.3457 79.1879 44.4614C84.0722 39.577 86.8162 32.9524 86.8162 26.0449L69.4608 26.0449C69.4608 28.3495 68.5453 30.5597 66.9157 32.1892C65.2861 33.8188 63.076 34.7343 60.7714 34.7343C58.4668 34.7343 56.2566 33.8188 54.627 32.1892C52.9975 30.5597 52.082 28.3495 52.082 26.0449L52.0897 26.0449ZM121.543 26.0448C121.543 19.1373 118.799 12.5127 113.914 7.62835C109.03 2.744 102.405 -4.28135e-06 95.498 -3.81337e-06C88.5904 -3.34538e-06 81.9658 2.744 77.0815 7.62835C72.1971 12.5127 69.4531 19.1373 69.4531 26.0448L86.8085 26.0448C86.8085 23.7402 87.724 21.5301 89.3536 19.9005C90.9832 18.2709 93.1934 17.3554 95.498 17.3554C97.8025 17.3554 100.013 18.2709 101.642 19.9005C103.272 21.5301 104.187 23.7402 104.187 26.0448L121.543 26.0448ZM183.368 7.62835C188.252 12.5127 190.996 19.1373 190.996 26.0448L173.64 26.0448C173.64 23.7403 172.725 21.5301 171.095 19.9005C169.466 18.2709 167.256 17.3554 164.951 17.3554C162.647 17.3554 160.436 18.2709 158.807 19.9005C157.177 21.5301 156.262 23.7403 156.262 26.0448L138.906 26.0448C138.906 19.1373 141.65 12.5127 146.535 7.62835C151.419 2.744 158.044 -3.40893e-06 164.951 -3.87691e-06C171.859 -4.3449e-06 178.483 2.744 183.368 7.62835ZM148.641 44.4613C153.525 39.577 156.269 32.9524 156.269 26.0449L138.914 26.0449C138.914 28.3494 137.998 30.5596 136.369 32.1892C134.739 33.8188 132.529 34.7343 130.225 34.7343C127.92 34.7343 125.71 33.8188 124.08 32.1892C122.451 30.5596 121.535 28.3494 121.535 26.0449L104.18 26.0449C104.18 32.9524 106.924 39.577 111.808 44.4613C116.692 49.3457 123.317 52.0897 130.225 52.0897C137.132 52.0897 143.757 49.3457 148.641 44.4613Z" fill="#BAD6EB"/>
</svg>
