<svg width="70" height="70" viewBox="0 0 70 70" fill="none" xmlns="http://www.w3.org/2000/svg">
<path d="M33.1591 21.8454C32.7352 21.9569 30.772 22.1354 28.7865 22.2469C23.2985 22.537 23.7447 22.8716 19.9522 26.7087C18.636 28.0472 18.8814 29.0958 18.2344 31.6613C16.6728 37.8632 22.5846 37.8409 25.7525 33.8476C28.385 30.5235 30.0581 29.4527 34.453 28.315C38.5132 27.2664 39.6286 26.4187 39.6286 24.4109C39.6286 22.2246 36.55 20.9753 33.1591 21.8454ZM33.9176 26.8426C29.3442 27.9357 26.2656 29.475 24.414 31.7059C21.4915 35.2084 20.443 35.9446 20.2868 34.5391C20.1976 33.8253 21.4692 29.7427 21.96 29.0958L23.6109 26.9318C25.9087 23.8978 25.7525 24.0093 29.6789 23.8086C31.5528 23.7193 33.5383 23.5409 34.0737 23.4293C37.5539 22.6931 37.2416 26.0395 33.9176 26.8426Z" fill="#344EAD"/>
<path d="M63.9886 24.6786C62.6501 22.9385 60.62 20.0832 59.4822 18.3654C52.678 8.14796 47.7254 6.40764 35.1655 9.86552C30.146 11.2487 29.5214 11.2041 21.5571 8.50468C11.3396 5.0468 -0.372554 12.0964 2.2599 21.6223C3.91076 27.6234 3.93306 27.5344 2.28221 33.3124C-0.0156068 41.4328 0.140563 44.8907 3.06303 50.3787C11.8527 66.865 32.8008 66.2401 38.5342 49.3522C40.3189 44.1097 40.9881 42.7714 42.6613 41.1205C45.6061 38.2203 46.6546 38.1534 50.2463 40.7859C55.3327 44.5115 59.9061 45.4707 64.3009 43.7306C71.0605 41.0536 70.9713 33.7806 63.9886 24.6786ZM53.0349 39.6035C45.3384 34.0932 38.8688 37.3278 35.1878 48.5491C32.9346 55.4203 31.73 57.0042 27.0228 59.3689C18.9693 63.4068 8.81871 57.406 5.0039 46.3631C3.59844 42.2583 3.88845 38.7332 6.2755 31.3713C7.43556 27.8019 7.48019 26.9541 6.69937 24.0317C5.517 19.5922 5.45008 19.0793 5.80701 17.3615C7.36864 9.91037 13.6598 8.10334 21.8917 10.7804C29.1867 13.1675 30.9715 13.1896 38.4003 11.1373C46.6546 8.83954 50.0455 10.2227 55.2881 18.0308C57.6529 21.5556 58.9691 23.3849 61.2446 26.2851C70.4136 37.9973 64.3902 47.7462 53.0349 39.6035Z" fill="#344EAD"/>
<path d="M49.3344 21.4884C43.6456 17.0713 44.8056 14.4834 35.1682 15.1527C30.6172 15.465 32.625 16.402 23.7907 17.1605C17.3657 17.7182 11.967 19.0122 11.967 25.5264C11.967 27.378 11.8554 28.3373 11.4985 29.5196C8.8214 38.3316 12.7255 48.2368 18.8381 48.2145C22.8091 48.1922 25.1738 46.2959 28.4755 40.451C30.4833 36.9039 33.2719 34.1822 35.9044 33.3791C36.306 33.2675 38.7822 33.0891 41.4147 32.9998C49.022 32.7321 51.3421 31.5272 52.4576 27.2662C53.0599 24.9907 52.5022 23.9424 49.3344 21.4884ZM40.1877 32.0852C32.6027 32.0852 30.1041 33.7135 26.2 41.0977C19.2843 54.1484 9.37913 44.8682 14.5325 30.122C15.291 27.958 15.3356 27.7349 15.1794 25.9725C14.8002 21.3546 17.7227 19.3691 25.9323 18.5883C30.5726 18.1421 31.688 17.7405 34.4989 16.9151C35.9713 16.4689 38.5145 16.3574 39.8531 16.6251C41.1024 16.8705 43.6456 20.2168 47.2373 23.0054C53.3722 27.7572 50.0259 32.0628 40.1877 32.0852Z" fill="#344EAD"/>
</svg>
