<svg width="70" height="70" viewBox="0 0 70 70" fill="none" xmlns="http://www.w3.org/2000/svg">
<g clip-path="url(#clip0_711_20328)">
<path d="M18.9424 56.6587C15.4363 65.8203 12.7696 74.8307 11.6867 79.3191C11.2356 81.2383 9.38274 91.5168 9.6324 95.1242C9.7675 97.0767 10.6234 98.2459 11.2027 98.7747C12.5598 100.012 14.3422 100.579 16.5617 98.9058C20.2635 96.079 24.916 89.8413 29.3652 83.5081C32.2783 79.362 35.0919 75.1716 37.5512 72.2248C34.7741 82.4425 29.6041 88.3043 24.3924 96.9099C21.3516 101.932 19.8125 107.949 20.2078 113.173C20.3356 114.863 21.2881 115.551 21.8691 115.915C22.7576 116.472 23.8368 116.667 25.0884 116.131C25.448 115.977 25.9601 115.669 26.4529 115.095C26.7934 114.699 27.3496 113.719 27.6037 113.272L28.951 110.746C31.9363 104.925 36.238 91.074 40.1013 91.7994C41.5629 92.0738 42.1117 93.7662 42.2347 94.9534C42.4713 97.2281 42.0545 99.9861 41.3347 102.872C39.2765 111.125 34.7335 120.289 33.2898 123.351C32.0487 125.993 30.999 128.754 29.7525 131.405C29.248 132.478 28.7076 133.532 28.1105 134.55C27.4133 135.72 27.7974 137.236 28.9676 137.934C30.1375 138.631 31.6535 138.247 32.3507 137.077C33.0371 135.943 33.6545 134.767 34.246 133.575C35.545 130.957 36.6853 128.241 37.9959 125.64C39.8381 121.969 46.1477 109.867 47.8253 100.406C48.8788 94.465 47.8699 89.4826 44.5183 86.9456C43.8017 86.4022 42.8689 86.0622 41.8249 85.9325C41.4413 85.8856 41.0367 85.8727 40.63 85.8856C42.1399 82.2708 43.49 78.7507 44.4488 75.7076C45.6066 72.0295 46.1621 68.9283 46.0375 66.9459C45.9055 64.8291 45.0487 63.4072 44.0316 62.5408C41.9194 60.7406 38.8033 60.5633 35.3243 63.3983C31.9715 66.1297 27.435 72.5212 22.9128 78.9847C20.9271 81.8221 18.9515 84.6816 17.0617 87.1416C17.7699 84.3283 18.6612 81.6205 18.8117 80.9016C19.6487 76.7846 21.7191 68.7314 24.5291 60.3148C26.676 60.7033 29.0931 60.3106 31.5774 59.2466C36.5486 57.117 41.866 52.2445 45.3693 47.1186C47.8027 43.5573 49.3292 39.8587 49.4554 36.8221C49.5973 33.4283 48.198 30.7043 44.8536 29.1828C43.6972 28.6538 41.8459 28.1808 40.1013 28.0882C38.6392 28.0107 37.2549 28.2529 36.238 28.7539C32.5376 30.5643 28.5837 35.8771 25.0616 42.7112C23.9145 44.9367 22.8013 47.3235 21.7382 49.7812C21.738 49.5829 21.7422 49.382 21.7499 49.178C21.8948 45.2811 23.362 40.4712 25.4718 35.4975C29.4909 26.023 35.3119 18.823 40.1013 13.2053C41.6376 11.4037 46.6332 6.93025 46.9954 4.55305C47.1995 3.20648 46.2723 1.94695 44.9257 1.74232C43.8316 1.58038 41.8546 2.22532 39.7021 4.26628C34.6681 9.03935 26.1442 21.774 21.1705 33.6873C18.3108 40.5372 16.6585 47.1366 17.2734 51.8964C17.5111 53.7362 18.059 55.3387 18.9424 56.6587ZM26.0504 55.9209C27.3968 55.9848 28.8945 55.5046 30.4308 54.758C33.494 53.2681 36.6377 50.6046 39.1992 47.5876C41.8653 44.4474 43.9214 40.922 44.481 37.9181C44.8195 36.0983 44.5199 34.5112 42.8339 33.8016C42.2295 33.5494 41.3188 33.3557 40.4107 33.2817C39.7541 33.2281 39.0868 33.197 38.6432 33.4346C34.8777 35.4641 31.4358 42.3796 28.2461 50.1919C27.4749 52.0863 26.7429 53.9963 26.0504 55.9209Z" stroke="#DCF343" stroke-width="1.75" stroke-linecap="round" stroke-linejoin="round"/>
</g>
<defs>
<clipPath id="clip0_711_20328">
<rect width="70" height="70" fill="white"/>
</clipPath>
</defs>
</svg>
