<svg width="16" height="16" viewBox="0 0 16 16" fill="none" xmlns="http://www.w3.org/2000/svg">
<path d="M13.5197 3.15979C13.1588 2.79455 12.729 2.50457 12.2553 2.30666C11.7815 2.10875 11.2732 2.00684 10.7597 2.00684C10.2463 2.00684 9.73791 2.10875 9.26413 2.30666C8.79036 2.50457 8.36058 2.79455 7.9997 3.15979C7.63882 2.79455 7.20904 2.50457 6.73527 2.30666C6.2615 2.10875 5.75315 2.00684 5.2397 2.00684C4.72625 2.00684 4.21791 2.10875 3.74413 2.30666C3.27036 2.50457 2.84058 2.79455 2.4797 3.15979C1.7493 3.90073 1.33984 4.89936 1.33984 5.93979C1.33984 6.98021 1.7493 7.97884 2.4797 8.71979L7.52637 13.7998C7.58834 13.8623 7.66208 13.9119 7.74332 13.9457C7.82456 13.9796 7.91169 13.997 7.9997 13.997C8.08771 13.997 8.17485 13.9796 8.25609 13.9457C8.33733 13.9119 8.41106 13.8623 8.47303 13.7998L13.5197 8.71979C14.2549 7.98139 14.6677 6.9818 14.6677 5.93979C14.6677 4.89777 14.2549 3.89819 13.5197 3.15979Z" fill="#7F909F" stroke="#7F909F" stroke-width="2"/>
</svg>
