<svg width="110" height="43" viewBox="0 0 110 43" fill="none" xmlns="http://www.w3.org/2000/svg">
<path d="M1 21.9395V-0.000171661H15.6264V7.31304H22.9396V14.6262H15.6264V21.9395H1Z" fill="#344EAD"/>
<path d="M24.4019 21.9395V7.31304H31.7151V-0.000171661H39.0283V7.31304H46.3415V21.9395H39.0283V14.6262H31.7151V21.9395H24.4019Z" fill="#344EAD"/>
<path d="M47.8037 21.9395V-0.000171661H69.7433V21.9395H62.4301V7.31304H55.1169V21.9395H47.8037Z" fill="#344EAD"/>
<path d="M78.5183 21.9395V7.31304H71.2051V-0.000171661H93.1447V7.31304H85.8315V21.9395H78.5183Z" fill="#344EAD"/>
<path d="M94.6074 21.9395V7.29444H99.4893V17.0576H104.371V7.29444H109.253V21.9395H94.6074Z" fill="#344EAD"/>
<path d="M14.8974 35.2447C14.8974 33.5443 14.0745 32.27 12.6194 32.27C10.8418 32.27 10.1067 33.3834 10.1067 35.3766C10.1067 37.3401 10.6797 38.5564 12.5172 38.5564C14.0449 38.5564 14.8974 37.2663 14.8974 35.2447ZM10.1509 37.9846V42H9.41638V33.5443C9.41638 32.9435 9.41638 32.0782 9.40186 31.5215L10.1218 31.5663C10.1509 31.8446 10.1509 32.4606 10.1509 33.0609C10.6065 32.1816 11.4148 31.5663 12.7374 31.5663C14.4708 31.5663 15.676 33.0167 15.676 35.2156C15.676 37.8527 14.2651 39.245 12.4875 39.245C11.194 39.245 10.5182 38.6732 10.1509 37.9846Z" fill="#344EAD"/>
<path d="M14.8974 35.2447C14.8974 33.5443 14.0745 32.27 12.6194 32.27C10.8418 32.27 10.1067 33.3834 10.1067 35.3766C10.1067 37.3401 10.6797 38.5564 12.5172 38.5564C14.0449 38.5564 14.8974 37.2663 14.8974 35.2447ZM10.1509 37.9846V42H9.41638V33.5443C9.41638 32.9435 9.41638 32.0782 9.40186 31.5215L10.1218 31.5663C10.1509 31.8446 10.1509 32.4606 10.1509 33.0609C10.6065 32.1816 11.4148 31.5663 12.7374 31.5663C14.4708 31.5663 15.676 33.0167 15.676 35.2156C15.676 37.8527 14.2651 39.245 12.4875 39.245C11.194 39.245 10.5182 38.6732 10.1509 37.9846Z" stroke="#344EAD" stroke-width="0.0871658"/>
<path d="M28.4735 33.4452C28.4735 32.2145 28.459 31.6868 28.459 31.4526H29.179C29.1935 31.6868 29.208 32.1558 29.208 33.0937C29.6346 31.9948 30.5748 31.3352 31.7649 31.2766V32.068C30.2366 32.1709 29.208 33.2256 29.208 34.9695V38.7798H28.4735V33.4452Z" fill="#344EAD"/>
<path d="M28.4735 33.4452C28.4735 32.2145 28.459 31.6868 28.459 31.4526H29.179C29.1935 31.6868 29.208 32.1558 29.208 33.0937C29.6346 31.9948 30.5748 31.3352 31.7649 31.2766V32.068C30.2366 32.1709 29.208 33.2256 29.208 34.9695V38.7798H28.4735V33.4452Z" stroke="#344EAD" stroke-width="0.0871658"/>
<path d="M65.6849 28.2392H66.42V29.5391H65.6849V28.2392ZM66.42 31.5219V39.4307C66.42 41.4094 65.9202 41.9951 64.6272 41.9951C64.5982 41.9951 64.3036 41.9806 64.2158 41.9655V41.2769C64.3332 41.292 64.4657 41.292 64.5534 41.292C65.5971 41.292 65.6849 40.7056 65.6849 39.5184V31.5219H66.42Z" fill="#344EAD"/>
<path d="M65.6849 28.2392H66.42V29.5391H65.6849V28.2392ZM66.42 31.5219V39.4307C66.42 41.4094 65.9202 41.9951 64.6272 41.9951C64.5982 41.9951 64.3036 41.9806 64.2158 41.9655V41.2769C64.3332 41.292 64.4657 41.292 64.5534 41.292C65.5971 41.292 65.6849 40.7056 65.6849 39.5184V31.5219H66.42Z" stroke="#344EAD" stroke-width="0.0871658"/>
<path d="M88.1289 34.306C88.1143 32.8556 87.3205 31.7119 85.8806 31.7119C84.3674 31.7119 83.6764 32.7672 83.5149 34.306H88.1289ZM83.4713 34.951C83.4858 36.8414 84.4412 38.0134 85.8515 38.0134C87.2328 38.0134 87.7029 37.2371 87.9673 36.6362H88.7169C88.4084 37.6032 87.6291 38.7026 85.8225 38.7026C83.5881 38.7026 82.7217 36.7827 82.7217 34.9214C82.7217 32.8259 83.7648 31.0233 85.9102 31.0233C88.173 31.0233 88.893 32.9724 88.893 34.3496C88.893 34.5553 88.893 34.7604 88.8785 34.951H83.4713Z" fill="#344EAD"/>
<path d="M88.1289 34.306C88.1143 32.8556 87.3205 31.7119 85.8806 31.7119C84.3674 31.7119 83.6764 32.7672 83.5149 34.306H88.1289ZM83.4713 34.951C83.4858 36.8414 84.4412 38.0134 85.8515 38.0134C87.2328 38.0134 87.7029 37.2371 87.9673 36.6362H88.7169C88.4084 37.6032 87.6291 38.7026 85.8225 38.7026C83.5881 38.7026 82.7217 36.7827 82.7217 34.9214C82.7217 32.8259 83.7648 31.0233 85.9102 31.0233C88.173 31.0233 88.893 32.9724 88.893 34.3496C88.893 34.5553 88.893 34.7604 88.8785 34.951H83.4713Z" stroke="#344EAD" stroke-width="0.0871658"/>
<path d="M104.97 35.1257C105.558 34.4075 107.26 32.5032 108.117 31.5217H108.923L106.492 34.261L109.344 38.6716H108.551L106.032 34.73L104.97 35.9021V38.6716H104.33V28.2391H104.97V35.1257Z" fill="#344EAD"/>
<path d="M104.97 35.1257C105.558 34.4075 107.26 32.5032 108.117 31.5217H108.923L106.492 34.261L109.344 38.6716H108.551L106.032 34.73L104.97 35.9021V38.6716H104.33V28.2391H104.97V35.1257Z" stroke="#344EAD" stroke-width="0.0871658"/>
<path d="M45.305 34.8572C45.305 36.6011 46.2453 38.0079 47.8032 38.0079C49.3902 38.0079 50.2863 36.7033 50.2863 34.8572C50.2863 33.1278 49.4047 31.7064 47.7736 31.7064C46.0988 31.7064 45.305 33.0987 45.305 34.8572ZM51.065 34.8421C51.065 36.8788 49.9336 38.6965 47.7445 38.6965C45.7606 38.6965 44.5264 37.07 44.5264 34.8572C44.5264 32.7617 45.6868 31.0178 47.8177 31.0178C49.772 31.0178 51.065 32.542 51.065 34.8421Z" fill="#344EAD"/>
<path d="M45.305 34.8572C45.305 36.6011 46.2453 38.0079 47.8032 38.0079C49.3902 38.0079 50.2863 36.7033 50.2863 34.8572C50.2863 33.1278 49.4047 31.7064 47.7736 31.7064C46.0988 31.7064 45.305 33.0987 45.305 34.8572ZM51.065 34.8421C51.065 36.8788 49.9336 38.6965 47.7445 38.6965C45.7606 38.6965 44.5264 37.07 44.5264 34.8572C44.5264 32.7617 45.6868 31.0178 47.8177 31.0178C49.772 31.0178 51.065 32.542 51.065 34.8421Z" stroke="#344EAD" stroke-width="0.0871658" stroke-miterlimit="10"/>
<path d="M48.3904 34.8888C48.3904 35.2497 48.0969 35.542 47.7355 35.542C47.374 35.542 47.0806 35.2497 47.0806 34.8888C47.0806 34.528 47.374 34.2357 47.7355 34.2357C48.0969 34.2357 48.3904 34.528 48.3904 34.8888Z" fill="#344EAD"/>
<path d="M48.3904 34.8888C48.3904 35.2497 48.0969 35.542 47.7355 35.542C47.374 35.542 47.0806 35.2497 47.0806 34.8888C47.0806 34.528 47.374 34.2357 47.7355 34.2357C48.0969 34.2357 48.3904 34.528 48.3904 34.8888Z" stroke="#344EAD" stroke-width="0.0871658" stroke-miterlimit="10"/>
<path d="M47.7357 34.4901C47.5155 34.4901 47.3365 34.669 47.3365 34.8887C47.3365 35.1089 47.5155 35.2873 47.7357 35.2873C47.9559 35.2873 48.1355 35.1089 48.1355 34.8887C48.1355 34.669 47.9559 34.4901 47.7357 34.4901ZM47.7357 35.7964C47.2336 35.7964 46.8257 35.389 46.8257 34.8887C46.8257 34.3884 47.2336 33.981 47.7357 33.981C48.2378 33.981 48.6457 34.3884 48.6457 34.8887C48.6457 35.389 48.2378 35.7964 47.7357 35.7964Z" fill="#344EAD"/>
<path d="M47.7357 34.4901C47.5155 34.4901 47.3365 34.669 47.3365 34.8887C47.3365 35.1089 47.5155 35.2873 47.7357 35.2873C47.9559 35.2873 48.1355 35.1089 48.1355 34.8887C48.1355 34.669 47.9559 34.4901 47.7357 34.4901ZM47.7357 35.7964C47.2336 35.7964 46.8257 35.389 46.8257 34.8887C46.8257 34.3884 47.2336 33.981 47.7357 33.981C48.2378 33.981 48.6457 34.3884 48.6457 34.8887C48.6457 35.389 48.2378 35.7964 47.7357 35.7964Z" stroke="#344EAD" stroke-width="0.0871658" stroke-miterlimit="10"/>
<path d="M6.49716 31.9175C6.49716 30.2172 5.67374 28.9428 4.21865 28.9428C2.44047 28.9428 1.70595 30.0562 1.70595 32.0494C1.70595 34.013 2.27892 35.2292 4.11637 35.2292C5.64468 35.2292 6.49716 33.9392 6.49716 31.9175ZM1.75011 34.6574V38.6729H1.01502V30.2172C1.01502 29.6163 1.01502 28.7958 1.00049 28.2391H1.72048C1.75011 28.5175 1.75011 29.1334 1.75011 29.7337C2.2057 28.8545 3.01344 28.2391 4.33661 28.2391C6.07063 28.2391 7.27584 29.6895 7.27584 31.8884C7.27584 34.5255 5.86492 35.9178 4.08674 35.9178C2.7932 35.9178 2.11737 35.346 1.75011 34.6574Z" fill="#344EAD"/>
<path d="M6.49716 31.9175C6.49716 30.2172 5.67374 28.9428 4.21865 28.9428C2.44047 28.9428 1.70595 30.0562 1.70595 32.0494C1.70595 34.013 2.27892 35.2292 4.11637 35.2292C5.64468 35.2292 6.49716 33.9392 6.49716 31.9175ZM1.75011 34.6574V38.6729H1.01502V30.2172C1.01502 29.6163 1.01502 28.7958 1.00049 28.2391H1.72048C1.75011 28.5175 1.75011 29.1334 1.75011 29.7337C2.2057 28.8545 3.01344 28.2391 4.33661 28.2391C6.07063 28.2391 7.27584 29.6895 7.27584 31.8884C7.27584 34.5255 5.86492 35.9178 4.08674 35.9178C2.7932 35.9178 2.11737 35.346 1.75011 34.6574Z" stroke="#344EAD" stroke-width="0.0871658" stroke-miterlimit="10"/>
<path d="M21.1097 30.4076C21.1097 29.1769 21.0952 28.4731 21.0952 28.239H21.8152C21.8297 28.4731 21.8448 29.1182 21.8448 30.0561C22.2708 28.9572 23.2116 28.2977 24.4017 28.239V29.0304C22.8734 29.1333 21.8448 30.188 21.8448 31.9319V35.7422H21.1097V30.4076Z" fill="#344EAD"/>
<path d="M21.1097 30.4076C21.1097 29.1769 21.0952 28.4731 21.0952 28.239H21.8152C21.8297 28.4731 21.8448 29.1182 21.8448 30.0561C22.2708 28.9572 23.2116 28.2977 24.4017 28.239V29.0304C22.8734 29.1333 21.8448 30.188 21.8448 31.9319V35.7422H21.1097V30.4076Z" stroke="#344EAD" stroke-width="0.0871658" stroke-miterlimit="10"/>
<path d="M58.3982 24.8124H59.1333V26.2338H58.3982V24.8124ZM59.1333 28.2857V36.1248C59.1333 38.1035 58.6336 38.6892 57.3406 38.6892C57.311 38.6892 57.0169 38.6753 56.9292 38.6602V37.9715C57.0466 37.9861 57.1791 37.9861 57.2668 37.9861C58.3105 37.9861 58.3982 37.4003 58.3982 36.2131V28.2857H59.1333Z" fill="#344EAD"/>
<path d="M58.3982 24.8124H59.1333V26.2338H58.3982V24.8124ZM59.1333 28.2857V36.1248C59.1333 38.1035 58.6336 38.6892 57.3406 38.6892C57.311 38.6892 57.0169 38.6753 56.9292 38.6602V37.9715C57.0466 37.9861 57.1791 37.9861 57.2668 37.9861C58.3105 37.9861 58.3982 37.4003 58.3982 36.2131V28.2857H59.1333Z" stroke="#344EAD" stroke-width="0.0871658" stroke-miterlimit="10"/>
<path d="M77.798 31.5218C77.7835 30.0714 76.9897 28.9278 75.5491 28.9278C74.0353 28.9278 73.345 29.983 73.1829 31.5218H77.798ZM73.1393 32.1668C73.1538 34.0572 74.1091 35.2293 75.5201 35.2293C76.9019 35.2293 77.372 34.4529 77.6364 33.852H78.3861C78.0775 34.819 77.2982 35.9185 75.491 35.9185C73.2567 35.9185 72.3896 33.9985 72.3896 32.1372C72.3896 30.0417 73.4327 28.2392 75.5788 28.2392C77.8422 28.2392 78.5627 30.1882 78.5627 31.5654C78.5627 31.7711 78.5627 31.9762 78.5476 32.1668H73.1393Z" fill="#344EAD"/>
<path d="M77.798 31.5218C77.7835 30.0714 76.9897 28.9278 75.5491 28.9278C74.0353 28.9278 73.345 29.9831 73.1829 31.5218H77.798ZM73.1393 32.1668C73.1538 34.0572 74.1091 35.2293 75.5201 35.2293C76.9019 35.2293 77.372 34.4529 77.6364 33.852H78.3861C78.0775 34.819 77.2982 35.9185 75.491 35.9185C73.2567 35.9185 72.3896 33.9985 72.3896 32.1372C72.3896 30.0417 73.4327 28.2392 75.5788 28.2392C77.8422 28.2392 78.5627 30.1882 78.5627 31.5654C78.5627 31.7711 78.5627 31.9762 78.5476 32.1668H73.1393Z" stroke="#344EAD" stroke-width="0.0871658" stroke-miterlimit="10"/>
<path d="M95.2991 32.1451C95.854 31.4193 97.5439 29.3157 98.3528 28.3232H99.1251L96.7356 31.2712L99.4273 35.73H98.6788L96.3009 31.7448L95.2991 32.9296V35.73H94.6953V24.8122H95.2991V32.1451Z" fill="#344EAD"/>
<path d="M95.2991 32.1451C95.854 31.4193 97.5439 29.3157 98.3528 28.3232H99.1251L96.7356 31.2712L99.4273 35.73H98.6788L96.3009 31.7448L95.2991 32.9296V35.73H94.6953V24.8122H95.2991V32.1451Z" stroke="#344EAD" stroke-width="0.0871658" stroke-miterlimit="10"/>
<path d="M36.437 31.8774C36.437 33.6213 37.3778 35.0282 38.9357 35.0282C40.5227 35.0282 41.4194 33.7236 41.4194 31.8774C41.4194 30.1481 40.5378 28.7267 38.9061 28.7267C37.2308 28.7267 36.437 30.119 36.437 31.8774ZM42.1986 31.8623C42.1986 33.8991 41.0666 35.7168 38.877 35.7168C36.8926 35.7168 35.6577 34.0903 35.6577 31.8774C35.6577 29.782 36.8188 28.0381 38.9503 28.0381C40.9051 28.0381 42.1986 29.5623 42.1986 31.8623Z" fill="#344EAD"/>
<path d="M36.437 31.8774C36.437 33.6213 37.3778 35.0282 38.9357 35.0282C40.5227 35.0282 41.4194 33.7236 41.4194 31.8774C41.4194 30.1481 40.5378 28.7267 38.9061 28.7267C37.2308 28.7267 36.437 30.119 36.437 31.8774ZM42.1986 31.8623C42.1986 33.8991 41.0666 35.7168 38.877 35.7168C36.8926 35.7168 35.6577 34.0903 35.6577 31.8774C35.6577 29.782 36.8188 28.0381 38.9503 28.0381C40.9051 28.0381 42.1986 29.5623 42.1986 31.8623Z" stroke="#344EAD" stroke-width="0.0871658" stroke-miterlimit="10"/>
<path d="M39.5227 31.9086C39.5227 32.2695 39.2292 32.5618 38.8678 32.5618C38.5058 32.5618 38.2129 32.2695 38.2129 31.9086C38.2129 31.5477 38.5058 31.2554 38.8678 31.2554C39.2292 31.2554 39.5227 31.5477 39.5227 31.9086Z" fill="#344EAD"/>
<path d="M39.5227 31.9086C39.5227 32.2695 39.2292 32.5618 38.8678 32.5618C38.5058 32.5618 38.2129 32.2695 38.2129 31.9086C38.2129 31.5477 38.5058 31.2554 38.8678 31.2554C39.2292 31.2554 39.5227 31.5477 39.5227 31.9086Z" stroke="#344EAD" stroke-width="0.0871658" stroke-miterlimit="10"/>
<path d="M38.8681 31.5104C38.6479 31.5104 38.4683 31.6888 38.4683 31.9085C38.4683 32.1287 38.6479 32.3071 38.8681 32.3071C39.0884 32.3071 39.2673 32.1287 39.2673 31.9085C39.2673 31.6888 39.0884 31.5104 38.8681 31.5104ZM38.8681 32.8162C38.366 32.8162 37.9575 32.4088 37.9575 31.9085C37.9575 31.4087 38.366 31.0014 38.8681 31.0014C39.3702 31.0014 39.7781 31.4087 39.7781 31.9085C39.7781 32.4088 39.3702 32.8162 38.8681 32.8162Z" fill="#344EAD"/>
<path d="M38.8681 31.5104C38.6479 31.5104 38.4683 31.6888 38.4683 31.9085C38.4683 32.1287 38.6479 32.3071 38.8681 32.3071C39.0884 32.3071 39.2673 32.1287 39.2673 31.9085C39.2673 31.6888 39.0884 31.5104 38.8681 31.5104ZM38.8681 32.8162C38.366 32.8162 37.9575 32.4088 37.9575 31.9085C37.9575 31.4087 38.366 31.0014 38.8681 31.0014C39.3702 31.0014 39.7781 31.4087 39.7781 31.9085C39.7781 32.4088 39.3702 32.8162 38.8681 32.8162Z" stroke="#344EAD" stroke-width="0.0871658" stroke-miterlimit="10"/>
</svg>
